<svg xmlns="http://www.w3.org/2000/svg" font-family="IBM Plex Sans, sans-serif" viewBox="0 76 760 214" font-size="13"><defs><marker id="road-arrow" viewBox="0 0 10 10" refX="9" refY="5" markerWidth="6" markerHeight="6" orient="auto-start-reverse"><path d="M0 0L10 5L0 10z" fill="#7d8890"></path></marker></defs><g><path d="M24 240H732" fill="none" stroke="#7d8890" stroke-width="1.25" marker-end="url(#road-arrow)"></path><polygon points="189,240 198,231 207,240 198,249" fill="#B86E00" stroke="#B86E00" stroke-width="1.25"></polygon><polygon points="371,240 380,231 389,240 380,249" fill="#B86E00" stroke="#B86E00" stroke-width="1.25"></polygon><polygon points="553,240 562,231 571,240 562,249" fill="#B86E00" stroke="#B86E00" stroke-width="1.25"></polygon><polygon points="691,240 700,231 709,240 700,249" fill="#B86E00" stroke="#B86E00" stroke-width="1.25"></polygon></g><g><rect x="24" y="88" width="166" height="128" rx="8" fill="none" fill-opacity="1" stroke="#7d8890" stroke-width="1.25"></rect><text x="40" y="112" font-weight="600" fill="#1b1f23">Cadrage</text><text x="40" y="128" font-size="11.5" fill="#4a545c">Jours 1 à 15</text><text x="40" y="156" font-size="11.5" fill="#1b1f23">Fiche et business case</text><text x="40" y="174" font-size="11.5" fill="#1b1f23">Jeu de départ (~70 cas)</text><text x="40" y="192" font-size="11.5" fill="#1b1f23">Revue RSSI et DPO</text></g><g><rect x="206" y="88" width="166" height="128" rx="8" fill="none" fill-opacity="1" stroke="#7d8890" stroke-width="1.25"></rect><text x="222" y="112" font-weight="600" fill="#1b1f23">Construction</text><text x="222" y="128" font-size="11.5" fill="#4a545c">Jours 16 à 45</text><text x="222" y="156" font-size="11.5" fill="#1b1f23">Corpus préparé</text><text x="222" y="174" font-size="11.5" fill="#1b1f23">Agent, flux, sujets</text><text x="222" y="192" font-size="11.5" fill="#1b1f23">Score sur le jeu</text></g><g><rect x="388" y="88" width="166" height="128" rx="8" fill="none" fill-opacity="1" stroke="#7d8890" stroke-width="1.25"></rect><text x="404" y="112" font-weight="600" fill="#1b1f23">Pilote</text><text x="404" y="128" font-size="11.5" fill="#4a545c">Jours 46 à 75</text><text x="404" y="156" font-size="11.5" fill="#1b1f23">30 utilisateurs</text><text x="404" y="174" font-size="11.5" fill="#1b1f23">Jeu enrichi, version 2</text><text x="404" y="192" font-size="11.5" fill="#1b1f23">Coût réel mesuré</text></g><g><rect x="570" y="88" width="166" height="128" rx="8" fill="#B86E00" fill-opacity="0.12" stroke="#B86E00" stroke-width="2"></rect><text x="586" y="112" font-weight="600" fill="#1b1f23">Déploiement</text><text x="586" y="128" font-size="11.5" fill="#4a545c">Jours 76 à 90</text><text x="586" y="156" font-size="11.5" fill="#1b1f23">Champions formés</text><text x="586" y="174" font-size="11.5" fill="#1b1f23">Pipeline vers la prod</text><text x="586" y="192" font-size="11.5" fill="#1b1f23">Rituel mensuel lancé</text></g><text x="198" y="274" text-anchor="middle" font-size="11.5" fill="#1b1f23">1 · Fiche signée</text><text x="380" y="274" text-anchor="middle" font-size="11.5" fill="#1b1f23">2 · Seuil en test</text><text x="562" y="274" text-anchor="middle" font-size="11.5" fill="#1b1f23">3 · Go / no go</text><text x="700" y="274" text-anchor="middle" font-size="11.5" fill="#1b1f23">4 · Revue</text></svg>